<svg width="20" height="21" viewBox="0 0 20 21" fill="none" xmlns="http://www.w3.org/2000/svg">
<path d="M10 3.18506C14.1517 3.18506 17.5 6.53339 17.5 10.6851C17.5 14.8367 14.1517 18.1851 10 18.1851" stroke="#15AABE" stroke-width="1.56164" stroke-linecap="round" stroke-linejoin="round"/>
<path d="M10 18.1851C5.84833 18.1851 2.5 14.8367 2.5 10.6851C2.5 6.53339 5.84833 3.18506 10 3.18506" stroke="#15AABE" stroke-width="1.56164" stroke-linecap="round" stroke-linejoin="round"/>
<path fill-rule="evenodd" clip-rule="evenodd" d="M8.47324 4.06818C6.06491 8.08902 6.06491 13.2815 8.47324 17.3024C9.17824 18.4799 10.8224 18.4799 11.5274 17.3024C13.9357 13.2815 13.9357 8.08902 11.5274 4.06818C10.8216 2.89068 9.17824 2.89068 8.47324 4.06818Z" stroke="#15AABE" stroke-width="1.56164" stroke-linecap="round" stroke-linejoin="round"/>
<path d="M3.3418 7.2334C7.41846 8.49257 12.5818 8.49257 16.6576 7.2334" stroke="#15AABE" stroke-width="1.56164" stroke-linecap="round" stroke-linejoin="round"/>
<path d="M16.6581 14.1368C12.5815 12.8776 7.41812 12.8776 3.34229 14.1368" stroke="#15AABE" stroke-width="1.56164" stroke-linecap="round" stroke-linejoin="round"/>
</svg>
