<svg width="18" height="18" viewBox="0 0 18 18" fill="none" xmlns="http://www.w3.org/2000/svg">
<path fill-rule="evenodd" clip-rule="evenodd" d="M4.93896 3.08138C4.93896 2.41424 5.48016 1.87305 6.1473 1.87305H11.814C12.4811 1.87305 13.0223 2.41424 13.0223 3.08138V15.123C13.0223 15.3992 12.7984 15.623 12.5223 15.623C12.2462 15.623 12.0223 15.3992 12.0223 15.123V3.08138C12.0223 2.96652 11.9288 2.87305 11.814 2.87305H6.1473C6.03244 2.87305 5.93896 2.96652 5.93896 3.08138V15.123C5.93896 15.3992 5.71511 15.623 5.43896 15.623C5.16282 15.623 4.93896 15.3992 4.93896 15.123V3.08138Z" fill="#15AABE"/>
<path fill-rule="evenodd" clip-rule="evenodd" d="M1.39746 7.33138C1.39746 6.66424 1.93865 6.12305 2.60579 6.12305H5.43913C5.71527 6.12305 5.93913 6.3469 5.93913 6.62305C5.93913 6.89919 5.71527 7.12305 5.43913 7.12305H2.60579C2.49094 7.12305 2.39746 7.21652 2.39746 7.33138V15.123C2.39746 15.3992 2.1736 15.623 1.89746 15.623C1.62132 15.623 1.39746 15.3992 1.39746 15.123V7.33138Z" fill="#15AABE"/>
<path fill-rule="evenodd" clip-rule="evenodd" d="M12.0225 6.62305C12.0225 6.3469 12.2463 6.12305 12.5225 6.12305H15.3558C16.0229 6.12305 16.5641 6.66424 16.5641 7.33138V15.123C16.5641 15.3992 16.3403 15.623 16.0641 15.623C15.788 15.623 15.5641 15.3992 15.5641 15.123V7.33138C15.5641 7.21652 15.4707 7.12305 15.3558 7.12305H12.5225C12.2463 7.12305 12.0225 6.89919 12.0225 6.62305Z" fill="#15AABE"/>
<path fill-rule="evenodd" clip-rule="evenodd" d="M6.70996 12.2896C6.70996 12.0134 6.93382 11.7896 7.20996 11.7896H10.7516C11.0278 11.7896 11.2516 12.0134 11.2516 12.2896C11.2516 12.5657 11.0278 12.7896 10.7516 12.7896H7.20996C6.93382 12.7896 6.70996 12.5657 6.70996 12.2896Z" fill="#15AABE"/>
<path fill-rule="evenodd" clip-rule="evenodd" d="M10.043 11.7896C10.3191 11.7896 10.543 12.0134 10.543 12.2896V15.1229C10.543 15.399 10.3191 15.6229 10.043 15.6229C9.76683 15.6229 9.54297 15.399 9.54297 15.1229V12.2896C9.54297 12.0134 9.76683 11.7896 10.043 11.7896Z" fill="#15AABE"/>
<path fill-rule="evenodd" clip-rule="evenodd" d="M7.91797 11.7896C8.19411 11.7896 8.41797 12.0134 8.41797 12.2896V15.1229C8.41797 15.399 8.19411 15.6229 7.91797 15.6229C7.64183 15.6229 7.41797 15.399 7.41797 15.1229V12.2896C7.41797 12.0134 7.64183 11.7896 7.91797 11.7896Z" fill="#15AABE"/>
<path fill-rule="evenodd" clip-rule="evenodd" d="M7.06396 7.68555C7.06396 7.4094 7.28782 7.18555 7.56396 7.18555H10.3973C10.6734 7.18555 10.8973 7.4094 10.8973 7.68555C10.8973 7.96169 10.6734 8.18555 10.3973 8.18555H7.56396C7.28782 8.18555 7.06396 7.96169 7.06396 7.68555Z" fill="#15AABE"/>
<path fill-rule="evenodd" clip-rule="evenodd" d="M7.06396 9.81055C7.06396 9.5344 7.28782 9.31055 7.56396 9.31055H10.3973C10.6734 9.31055 10.8973 9.5344 10.8973 9.81055C10.8973 10.0867 10.6734 10.3105 10.3973 10.3105H7.56396C7.28782 10.3105 7.06396 10.0867 7.06396 9.81055Z" fill="#15AABE"/>
<path fill-rule="evenodd" clip-rule="evenodd" d="M7.06396 5.56055C7.06396 5.2844 7.28782 5.06055 7.56396 5.06055H10.3973C10.6734 5.06055 10.8973 5.2844 10.8973 5.56055C10.8973 5.83669 10.6734 6.06055 10.3973 6.06055H7.56396C7.28782 6.06055 7.06396 5.83669 7.06396 5.56055Z" fill="#15AABE"/>
<path fill-rule="evenodd" clip-rule="evenodd" d="M3.52246 9.81055C3.52246 9.5344 3.74632 9.31055 4.02246 9.31055H5.43913C5.71527 9.31055 5.93913 9.5344 5.93913 9.81055C5.93913 10.0867 5.71527 10.3105 5.43913 10.3105H4.02246C3.74632 10.3105 3.52246 10.0867 3.52246 9.81055Z" fill="#15AABE"/>
<path fill-rule="evenodd" clip-rule="evenodd" d="M3.52246 12.2896C3.52246 12.0134 3.74632 11.7896 4.02246 11.7896H5.43913C5.71527 11.7896 5.93913 12.0134 5.93913 12.2896C5.93913 12.5657 5.71527 12.7896 5.43913 12.7896H4.02246C3.74632 12.7896 3.52246 12.5657 3.52246 12.2896Z" fill="#15AABE"/>
<path fill-rule="evenodd" clip-rule="evenodd" d="M12.0225 9.81055C12.0225 9.5344 12.2463 9.31055 12.5225 9.31055H13.9391C14.2153 9.31055 14.4391 9.5344 14.4391 9.81055C14.4391 10.0867 14.2153 10.3105 13.9391 10.3105H12.5225C12.2463 10.3105 12.0225 10.0867 12.0225 9.81055Z" fill="#15AABE"/>
<path fill-rule="evenodd" clip-rule="evenodd" d="M12.0225 12.2896C12.0225 12.0134 12.2463 11.7896 12.5225 11.7896H13.9391C14.2153 11.7896 14.4391 12.0134 14.4391 12.2896C14.4391 12.5657 14.2153 12.7896 13.9391 12.7896H12.5225C12.2463 12.7896 12.0225 12.5657 12.0225 12.2896Z" fill="#15AABE"/>
<path fill-rule="evenodd" clip-rule="evenodd" d="M0.688965 15.123C0.688965 14.8469 0.912822 14.623 1.18896 14.623H16.7723C17.0484 14.623 17.2723 14.8469 17.2723 15.123C17.2723 15.3992 17.0484 15.623 16.7723 15.623H1.18896C0.912822 15.623 0.688965 15.3992 0.688965 15.123Z" fill="#15AABE"/>
</svg>
