<svg width="20" height="21" viewBox="0 0 20 21" fill="none" xmlns="http://www.w3.org/2000/svg">
<path d="M9.99933 7.03695C9.88433 7.03695 9.791 7.13028 9.79183 7.24528C9.79183 7.36028 9.88517 7.45361 10.0002 7.45361C10.1152 7.45361 10.2085 7.36028 10.2085 7.24528C10.2085 7.13028 10.1152 7.03695 9.99933 7.03695" stroke="#15AABE" stroke-width="1.56164" stroke-linecap="round" stroke-linejoin="round"/>
<path fill-rule="evenodd" clip-rule="evenodd" d="M10 17.8701V17.8701C5.8575 17.8701 2.5 14.5126 2.5 10.3701V10.3701C2.5 6.22762 5.8575 2.87012 10 2.87012V2.87012C14.1425 2.87012 17.5 6.22762 17.5 10.3701V10.3701C17.5 14.5126 14.1425 17.8701 10 17.8701Z" stroke="#15AABE" stroke-width="1.56164" stroke-linecap="round" stroke-linejoin="round"/>
<path d="M10.0002 10.3701V14.5368" stroke="#15AABE" stroke-width="1.56164" stroke-linecap="round" stroke-linejoin="round"/>
</svg>
